. 
  
http://www.torrenting.com/        :     Greatest Movie Tracker on The Net!!!
 
http://www.Torrenting.com          :     Once & For all ;)


               www . Torrenting . Com 

(((((((((((((= Enjoy No RAR releases =))))))))))))))))))))


...................................NFO:....................................

.                                                                                                     
       
     
     
       
       
     
     
                                         
                                         
                EXVID                    
                                         
         
                                         
         Filled the Archives             
                                         
         
                                         
                With:                    
                                         
         
                                         
                                    
     E240                           
                                    
     SP               (C) 2009      
                                         
     
     
     
                                                                                  
                                                                                   
         American.Gangster.2007.Theatrical.Cut.DVDRip.XviD-EXViD                    
                                                                                   
                                                                                  
     
                                                                                               
EXViD aims to iNTERNAL those releases which have been lost in the archives.
EXViD aims to PRE non-internal releases which have poor sources and are likely skipped by others. 
http://www.imdb.com/title/tt0765429/
Subtitles: EN, CZ, NL, BG, GR, RO
Date: 2011.07

Director: Ridley Scott

Genres: Crime | Drama

Plot:
Following the death of his employer and mentor, Bumpy Johnson, Frank Lucas establishes himself
as the number one importer of heroin in the Harlem district of Manhattan. He does so by buying
heroin directly from the source in South East Asia and he comes up with a unique way of
importing the drugs into the United States. As a result, his product is superior to what is
currently available on the street and his prices are lower. His alliance with the New York
Mafia ensures his position. It is also the story of a dedicated and honest policeman, Richie
Roberts, who heads up a joint narcotics task force with the Federal government. Based on a
true story.

Cast:
Denzel Washington 	 ... 	Frank Lucas 
Russell Crowe 	 ... 	Richie Roberts 
Chiwetel Ejiofor 	 ... 	Huey Lucas 
Josh Brolin 	 ... 	Detective Trupo 
Lymari Nadal 	 ... 	Eva 
Ted Levine 	 ... 	Lou Toback 
Roger Guenveur Smith 	 ... 	Nate 
John Hawkes 	 ... 	Freddie Spearman 
RZA 	 ... 	Moses Jones 
Yul Vazquez 	 ... 	Alfonso Abruzzo 
Malcolm Goodwin 	 ... 	Jimmy Zee 
Ruby Dee 	 ... 	Mama Lucas 
Ruben Santiago-Hudson 	 ... 	Doc 
Carla Gugino 	 ... 	Laurie Roberts 
Skyler Fortgang 	 ... 	Michael Roberts

Stats:
Format                           : AVI
Format/Info                      : Audio Video Interleave
File size                        : 1.37 GiB
Duration                         : 2h 30mn
Overall bit rate                 : 1 301 Kbps
Writing application              : Nandub v1.0rc2
Writing library                  : Nandub build 1852/release

Video
ID                               : 0
Format                           : MPEG-4 Visual
Format profile                   : Advanced Simple@L5
Format settings, BVOP            : 2
Format settings, QPel            : No
Format settings, GMC             : No warppoints
Format settings, Matrix          : Default (H.263)
Codec ID                         : XVID
Codec ID/Hint                    : XviD
Duration                         : 2h 30mn
Bit rate                         : 910 Kbps
Width                            : 624 pixels
Height                           : 336 pixels
Display aspect ratio             : 1.857
Frame rate                       : 25.000 fps
Color space                      : YUV
Chroma subsampling               : 4:2:0
Bit depth                        : 8 bits
Scan type                        : Progressive
Compression mode                 : Lossy
Bits/(Pixel*Frame)               : 0.174
Stream size                      : 979 MiB (70%)
Writing library                  : XviD 64

Audio
ID                               : 1
Format                           : AC-3
Format/Info                      : Audio Coding 3
Mode extension                   : CM (complete main)
Codec ID                         : 2000
Duration                         : 2h 30mn
Bit rate mode                    : Constant
Bit rate                         : 384 Kbps
Channel(s)                       : 6 channels
Channel positions                : Front: L C R, Side: L R, LFE
Sampling rate                    : 48.0 KHz
Bit depth                        : 16 bits
Compression mode                 : Lossy
Stream size                      : 413 MiB (30%)
Alignment                        : Aligned on interleaves
Interleave, duration             : 96 ms (2.40 video frames)
Interleave, preload duration     : 96 ms




Release notes:
DiAMOND did the EXTENDED, this is the THEATRiCAL cut.

See http://www.movie-censorship.com/report.php?ID=4896 for differences.

enjoy!

Looking for:
75TB+ Archives
DUTCH/FLEMiSH Archives
                                                                                                    
Greets: CRBS EPiSODE FiCO FLS iLS KLASSiGER LiPSYNC MADE NODLABS RUNNER SPRiNTER      
   

                                                                    ASCII DONE BY XX^NFO 2oo9